<svg enable-background="new 0 0 140 140" height="512" viewBox="0 0 140 140" width="512" xmlns="http://www.w3.org/2000/svg"><circle cx="70" cy="70" fill="#509fd7" r="64"/><path d="m131.3499756 51.7600098c1.710083 5.7799682 2.6500244 11.8999633 2.6500244 18.2399902 0 35.3499756-28.6500244 64-64 64-16.6099854 0-31.7399902-6.3300171-43.1099854-16.7000122-1.460083-1.3300171-2.8599854-2.7299805-4.1900635-4.1900024-.4299316-.4799805-.8499756-.9699707-1.2800293-1.4699707-.2799072-.3200073-.5599365-.6400146-.829834-.9700317-.3500977-.4199829-.6801758-.8599854-1.0200195-1.289978-.3200684-.4000244-.6401367-.8000488-.9500732-1.210022-.3099365-.4199829-.5999756-.8499756-.9000244-1.2700195-.3100586-.4499512-.6298828-.8899536-.9399414-1.3499756-.2700195-.4099731-.5300293-.8300171-.8000488-1.25-.3100586-.4799805-.6199951-.9700317-.9099121-1.460022-.2399902-.3999634-.4700928-.8099976-.710083-1.2199707-.2999268-.5300293-.5999756-1.0599976-.8800049-1.6000366-.2099609-.3799438-.3999023-.7799683-.5999756-1.1699829-.2999268-.5800171-.5899658-1.1599731-.8599854-1.75-.1700439-.3599854-.3300781-.7199707-.4899902-1.0800171-.2900391-.6499634-.5700684-1.2999878-.8400879-1.9599609-.1298828-.3200073-.25-.6300049-.369873-.9500122-.2900391-.7399904-.5600586-1.4799806-.8200684-2.2299806-.0400391-.1300049-.0900879-.2700195-.1300049-.4000244l2.710083-2.710022.9599609.960022 2.3898926-2.4000244 1.7299805 1.7300415 5.6101074-5.1799927v-17.9100342c0-3.5499878 1.4599609-6.9699707 4.1499023-9.289978.0300293-.0200195.0600586-.0499878.0900879-.0700073 1.4599609-1.2399902 2.5400391-2.8599854 3.2800293-4.6199951 1.5100098-3.5999756 4.3798828-9.0300293 8.1799316-9.7299805v-9.7600098c0-2.3500366 1.9000244-4.2600098 4.2600098-4.2600098h62.4699707c1.5 0 2.8100586.7799683 3.5700684 1.9500122z" opacity=".1"/><path d="m105.201767 27.2370281h-62.4727555c-2.3544846 0-4.2632332 1.9087486-4.2632332 4.2632294v44.254303c0 2.3545456 1.9087486 4.2632294 4.2632332 4.2632294h62.4727554c2.3545456 0 4.2632294-1.9086838 4.2632294-4.2632294v-44.254303c0-2.3544808-1.9086837-4.2632294-4.2632293-4.2632294z" fill="#293b44"/><path d="m42.729141 31.500063h62.472561v44.254952h-62.472561z" fill="#48b19a"/><path d="m49.709164 35.660881h17.178524v20.361204h-17.178524z" fill="#dad7dc"/><path d="m64.4789886 49.6987228.0054245.0054284v-.0054284z" fill="#d6b24e"/><path d="m62.9873352 48.6570015c-1.0904655-.6204796-2.2275238-1.0889435-2.2275238-1.0889435-.704792-.2439766-.6776924-.7915573-.6776924-.7915573v-1.1330872h-3.5619621v1.1330872s.0270996.5475807-.6831207.7915573c0 0-1.137455.4686279-2.2296715 1.0892754-.9236565.5248795-1.4949303 1.5054855-1.4949303 2.5678902v3.3583221h12.3719788l-.0037384-3.3628235c-.0011597-1.060585-.5715371-2.0392036-1.4933396-2.5637207z" fill="#d6b24e"/><path d="m55.8432198 47.5657425s-.1752357.072422-.4536591.1977234c.3167534 1.3175201 1.5018387 2.300663 2.9150925 2.300663s2.5983658-.9831543 2.9151039-2.3006897c-.2783966-.1252899-.4536324-.1976967-.4536324-.1976967-.1282883-.0439987-.2318077-.098114-.3163605-.1569557-.1664658 1.0353432-1.0635681 1.8296165-2.1451111 1.8296165-1.0815315 0-1.9786186-.7942734-2.1450958-1.8295898-.0845451.0588379-.1880607.1129417-.3163375.156929z" fill="#ececec"/><path d="m56.1595573 47.4088135c.1664772 1.0353165 1.0635643 1.8295898 2.1450958 1.8295898 1.081543 0 1.9786453-.7942734 2.1451111-1.8296165-.3818321-.2657089-.3646317-.6311226-.3646317-.6311226v-1.1316757h-3.5609322v1.1316757c.0000001 0 .0172121.3654251-.364643.6311493z" fill="#d6b24e"/><path d="m61.1108665 40.9389572c-.0006065 0-.001194.0001831-.0018005.0001831-.0378761-1.5434303-1.2846298-2.7942543-2.8043938-2.7942543h-.0000152c-1.5197601 0-2.7665176 1.250824-2.8043938 2.7942543-.0006027 0-.001194-.0001831-.0017967-.0001831-.3098564 0-.5610237.5062981-.5610237 1.1308289 0 .6245346.2511673 1.130825.5610237 1.130825v.2342529c0 1.5764503 1.2627907 2.8662796 2.8061905 2.8662796h.0000153c1.5434036 0 2.8061943-1.2898293 2.8061943-2.8662796v-.2342529c.3098412 0 .5610237-.5062904.5610237-1.130825 0-.6245308-.2511826-1.1308289-.5610238-1.1308289z" fill="#ffd25a"/><path d="m59.8961716 37.7919464s-2.9647331-1.9179497-4.5994949.629776c-1.269413 1.9783516-.4506607 3.660553-.0212021 4.1682625l.4619255.2057838v-1.6101723c.218399-.5822105.6269722-1.0313454 1.3879967-.5024147.5986786.4161034 1.0990181.3678818 1.4858627.1559448.8382034-.4591942 1.8350449-.2301559 2.3608437.4564667v1.5001755h.331089l.3633003-.8834953c.9420662-4.3353882-1.7703209-4.120327-1.7703209-4.120327z" fill="#293b44"/><path d="m71.520538 39.947594h26.701143v5.89389h-26.701143z" fill="#e6e7e8"/><path d="m71.520538 48.736458h26.701143v5.89389h-26.701143z" fill="#e6e7e8"/><g fill="#b0b1b5"><circle cx="74.677" cy="51.683" r="1.006"/><circle cx="78.755" cy="51.683" r="1.006"/><circle cx="82.832" cy="51.683" r="1.006"/><circle cx="86.91" cy="51.683" r="1.006"/><circle cx="90.988" cy="51.683" r="1.006"/><circle cx="95.065" cy="51.683" r="1.006"/></g><path d="m109.747963 79.5873413c-1.9000244 0-3.4400024 1.539978-3.4400024 3.4400024v-3.039978c0-1.9000244-1.5400391-3.4400024-3.4299927-3.4400024-1.9000244 0-3.4400024 1.539978-3.4400024 3.4400024v-1.9200439c0-1.8999634-1.5400391-3.4400024-3.4400024-3.4400024-1.8900146 0-3.4300537 1.5400391-3.4300537 3.4400024v-15.9999962c0-1.8999634-1.539978-3.4400024-3.4399414-3.4400024-1.9000244 0-3.4400024 1.5400391-3.4400024 3.4400024v25.8099937l-3-6.3200073c-.8099976-1.7199707-2.8600464-2.4499512-4.5700073-1.6399536-1.7200317.8200073-2.4500122 2.8699951-1.6400146 4.5799561l8.4099731 17.7300415c2.2600098 3.3099976 3.460022 7.2199707 3.460022 11.2199707v4.8400269h23.6699829c.4000244-.3400269.7900391-.6900024 1.1700439-1.0499878v-34.210022c-.0000002-1.9000245-1.5400393-3.4400025-3.4400026-3.4400025z" fill="#ffd25a"/><path d="m82.429306 83.1868591-4.3841858 2.4073029-.7117157-1.4986801c-.290451-.5994186-.3279572-1.2832336-.1031494-1.9110184.2248154-.6275558.683815-1.1334381 1.2832413-1.4145126.3373337-.1591721.7025681-.2435684 1.0680313-.2435684.9648895 0 1.8547592.562149 2.2668762 1.4332657z" fill="#e6e7e8"/><path d="m91.6280975 64.4681854v-2.3995247c0-1.3776932-1.1215515-2.4992371-2.4997025-2.4992371-1.3781433 0-2.4996948 1.1215439-2.4996948 2.4992371v2.3995247z" fill="#e6e7e8"/><path d="m113.9079361 116.5773315c-.9799805.9299927-1.9899902 1.8300171-3.0299683 2.6900024l-24.25 5.046875v-7.7368774z" fill="#ececec"/><path d="m110.8779678 119.267334c-7.4100342 6.1600342-16.2400513 10.6699829-25.9200439 12.9799805v-12.9799805z" fill="#304651"/><path d="m15.3154297 89.7717514 7.4540348-6.8914719v-17.9125366c0-3.5435104 1.4633026-6.9723663 4.1499634-9.2828484.0305882-.0263023.0612755-.0524826.0920582-.0785332 1.4610558-1.2362747 2.5349426-2.8535652 3.2758579-4.6182518 1.5181828-3.6159554 4.4129238-9.0855217 8.234045-9.7379074v8.3430977s5.6256866-.3265076 6.3288956 5.0882225l.0615311 28.0998726s.3603973 8.5374146-4.984005 10.2251205-12.798439 9.0010986-12.798439 9.0010986z" fill="#ffd25a"/><path d="m28.2543488 101.2748413c-.1342659 0-.2685337-.0499573-.3720951-.1519547-.2107677-.2050476-.2149315-.5422745-.009367-.7535629.2393894-.2445908 5.9301147-6.0243073 11.8971786-7.8717804 5.4289589-1.6809387 4.5593491-11.1576691 4.5499802-11.2534256l-.0026016-26.5629654c0-2.536499-2.063961-4.6004601-4.6004601-4.6004601-2.5364952 0-4.6004562 2.063961-4.6004562 4.6004601v17.9324188c0 .2945557-.2383499.5329056-.5329056.5329056-.2945518 0-.5329018-.2383499-.5329018-.5329056v-17.9324188c0-3.1245651 2.5416985-5.6662674 5.6662636-5.6662674s5.6662674 2.5417023 5.6662674 5.6662674v26.5109253c.0395508.372612.952877 10.3884964-5.2978134 12.3233948-5.7058182 1.7662888-11.3929005 7.540802-11.449625 7.5990829-.1046029.1061631-.2430325.160286-.381464.160286z" fill="#d6b24e"/><path d="m10.248003 93.542587h22.591858v5.306079h-22.591858z" fill="#ececec" transform="matrix(-.707 -.707 .707 -.707 -31.243 179.45)"/><path d="m29.9779472 105.6673584-7.3599854 7.3599854c-5.8600464-6.4500122-10.4200439-14.0999756-13.2600098-22.539978l2.7199707-2.7200317z" fill="#304651"/><path d="m42.3104553 57.5883179v-2.3995247c0-1.3776894-1.1215477-2.4992371-2.4996986-2.4992371-1.3781471 0-2.4996948 1.1215477-2.4996948 2.4992371v2.3995247z" fill="#e6e7e8"/></svg>